<?xml version="1.0" standalone="no"?>
<!DOCTYPE svg PUBLIC "-//W3C//DTD SVG 20010904//EN"
 "http://www.w3.org/TR/2001/REC-SVG-20010904/DTD/svg10.dtd">
<svg version="1.0" xmlns="http://www.w3.org/2000/svg"
 width="640.000000pt" height="640.000000pt" viewBox="0 0 640.000000 640.000000"
 preserveAspectRatio="xMidYMid meet">
<metadata>
Created by potrace 1.11, written by Peter Selinger 2001-2013
</metadata>
<g transform="translate(0.000000,640.000000) scale(0.100000,-0.100000)"
fill="#000000" stroke="none">
<path d="M2485 5751 c-75 -20 -185 -95 -185 -128 0 -7 -4 -13 -9 -13 -14 0
-38 -68 -46 -130 -5 -35 -8 -236 -4 -255 1 -5 0 -14 -1 -20 -1 -5 -1 -62 0
-125 0 -63 1 -122 1 -130 -1 -8 -1 -33 0 -55 0 -22 0 -44 0 -50 0 -5 -2 -36
-3 -68 -2 -31 -1 -57 2 -57 4 0 4 -114 0 -130 -3 -12 2 -138 7 -170 8 -55 44
-121 90 -167 51 -50 93 -71 175 -89 21 -5 114 -7 134 -3 5 1 14 1 19 0 6 -1
75 -2 154 -1 123 0 143 -2 138 -14 -4 -9 -2 -18 4 -21 5 -4 7 -10 5 -14 -6
-10 -7 -43 -7 -221 0 -8 0 -55 0 -105 0 -49 0 -96 0 -102 1 -7 1 -19 2 -25 0
-7 0 -41 -1 -74 l-2 -62 -77 0 c-42 0 -81 -2 -87 -3 -5 -1 -13 -1 -19 0 -10 2
-330 2 -330 1 0 -1 -28 -2 -63 -3 -34 -1 -62 0 -62 3 0 3 -26 4 -57 2 -32 -1
-62 -3 -68 -3 -5 0 -28 0 -50 0 -22 1 -47 1 -55 0 -8 0 -73 0 -145 1 -71 0
-132 1 -135 0 -19 -4 -130 -4 -130 0 0 3 -26 4 -57 2 -32 -1 -62 -3 -68 -3 -5
0 -28 0 -50 0 -22 1 -47 1 -55 0 -8 0 -73 0 -145 1 -71 0 -132 1 -135 0 -19
-4 -130 -4 -130 0 0 6 -82 3 -154 -5 -58 -7 -142 -46 -196 -92 -48 -41 -104
-133 -118 -193 -8 -36 -15 -159 -13 -240 0 -8 0 -80 0 -160 0 -80 0 -161 1
-180 1 -19 3 -47 3 -62 1 -26 4 -28 41 -29 23 -1 45 0 51 1 5 1 17 1 25 1 8 0
35 0 60 0 25 0 51 0 58 0 6 0 32 0 57 0 25 0 51 0 58 0 6 0 38 -2 69 -3 l56
-3 4 38 c2 20 1 37 -2 37 -3 0 -4 33 -3 72 5 181 5 219 0 224 -3 3 -1 19 3 35
5 16 5 31 0 34 -4 3 -6 14 -3 24 4 16 15 19 59 20 30 0 59 3 64 6 6 3 10 3 10
-2 0 -4 43 -6 95 -3 52 3 105 3 117 0 13 -4 42 -3 65 0 24 4 45 5 47 3 6 -6
196 -9 196 -3 0 3 37 4 82 2 85 -2 375 -4 393 -2 6 1 46 1 90 0 118 -1 173 -1
182 1 4 1 10 1 13 0 14 -5 200 -5 200 -1 0 3 37 4 82 2 71 -3 146 -3 167 0 3
0 18 0 32 -1 22 -1 26 -6 26 -33 2 -55 3 -290 2 -348 -1 -94 0 -99 19 -99 9 0
47 -1 85 -3 37 -2 67 -1 67 3 0 3 24 2 53 -1 29 -3 67 -3 83 1 17 3 38 3 47 0
10 -4 41 -4 70 -1 l52 5 0 48 c0 26 2 47 5 47 3 0 4 26 3 57 -2 32 -3 90 -2
128 1 63 -1 127 -3 144 0 3 0 16 1 28 1 21 4 22 159 22 86 0 162 1 167 2 6 1
13 1 17 0 6 0 177 -1 208 0 8 0 80 0 160 0 166 0 152 0 290 0 58 0 112 0 120
0 33 -1 109 -1 117 0 4 1 10 1 13 0 14 -5 200 -5 200 -1 0 4 91 3 175 -1 6 -1
35 0 65 0 30 1 94 1 142 0 l86 -1 4 -55 c1 -30 0 -57 -5 -60 -4 -2 -5 -9 -1
-14 3 -5 5 -47 4 -92 -1 -103 -1 -194 -1 -230 1 -23 5 -27 29 -27 15 0 46 0
69 0 23 0 46 0 50 1 5 1 13 1 18 0 8 -2 55 -2 160 0 6 0 29 -1 53 -2 24 -1 45
1 49 4 3 3 15 2 28 -3 23 -9 23 -8 25 63 2 87 0 140 -5 145 -2 2 1 17 5 33 5
16 5 31 1 33 -4 3 -5 27 -1 53 3 27 3 59 0 71 -3 12 -3 65 0 117 3 52 3 95 0
95 -3 0 -7 15 -8 33 -1 17 -7 43 -13 57 -7 14 -19 41 -28 60 -24 52 -109 131
-175 163 -49 24 -75 30 -155 33 -166 8 -251 9 -251 3 0 -3 -19 -3 -43 1 -24 3
-54 3 -68 0 -13 -4 -33 -4 -43 0 -11 4 -37 4 -58 0 -20 -4 -40 -5 -42 -2 -5 4
-219 6 -242 1 -5 -1 -13 -1 -19 0 -5 1 -71 2 -145 1 -74 -1 -142 -2 -150 -1
-52 2 -102 1 -108 -3 -5 -3 -14 -1 -21 3 -7 5 -30 5 -52 1 -22 -4 -41 -4 -44
0 -2 4 -25 4 -50 0 -25 -4 -45 -4 -45 -1 0 3 -26 5 -57 3 -67 -3 -58 -3 -170
-2 -49 1 -92 1 -98 0 -5 -1 -14 -2 -20 -1 -5 1 -75 2 -154 1 -123 0 -143 2
-138 14 4 9 2 18 -4 21 -5 4 -7 10 -5 14 6 10 7 43 7 221 0 8 0 56 0 105 0 50
0 96 0 103 -1 6 -1 18 -2 25 0 6 0 40 1 73 l2 62 77 0 c42 0 81 2 87 3 5 1 14
1 19 0 12 -2 111 -2 204 0 65 1 157 27 186 51 87 73 128 137 141 218 7 48 6
118 -2 132 -3 4 -2 8 3 8 6 0 8 430 2 450 -1 3 -1 9 0 14 3 12 3 288 0 301 -1
6 -1 14 0 19 1 4 2 31 2 60 0 144 -66 257 -186 316 l-50 25 -705 2 c-388 0
-718 -2 -735 -6z"/>
<path d="M320 2238 c0 -3 -9 -4 -19 -1 -11 3 -49 -5 -84 -16 -77 -26 -149 -90
-187 -166 l-25 -50 0 -565 0 -565 24 -49 c31 -63 94 -126 156 -156 l50 -25
565 0 565 0 49 24 c79 40 158 130 173 201 11 46 19 267 12 305 -1 6 0 15 1 20
1 6 1 49 0 98 -1 112 -1 103 2 170 2 31 0 57 -3 57 -3 0 -3 20 1 45 4 25 4 48
0 50 -4 3 -4 22 0 44 4 22 4 45 -1 52 -4 7 -6 16 -3 21 6 9 6 66 1 183 -4 107
-29 167 -93 231 -59 58 -122 85 -213 91 -70 4 -139 5 -158 2 -5 -1 -11 -1 -15
0 -18 4 -240 3 -244 -1 -2 -3 -23 -2 -47 2 -23 3 -56 3 -74 -1 -17 -3 -36 -3
-42 0 -5 4 -41 4 -80 1 -38 -3 -80 -3 -93 0 -13 3 -42 3 -65 0 -24 -4 -45 -5
-47 -2 -8 7 -106 8 -106 0z"/>
<path d="M2759 2245 c-2 -2 -29 -6 -59 -9 -61 -6 -71 -8 -117 -26 -18 -6 -33
-16 -33 -21 0 -5 -6 -9 -13 -9 -19 0 -79 -71 -105 -123 -30 -61 -36 -118 -30
-285 2 -45 1 -82 -2 -82 -4 0 -4 -186 1 -200 1 -3 1 -9 0 -13 -1 -8 -1 -84 0
-117 1 -13 0 -190 0 -245 -2 -199 1 -226 36 -303 21 -47 91 -114 149 -143 l49
-24 565 0 565 0 49 24 c92 46 167 144 180 236 7 50 8 98 4 203 -2 45 -1 82 2
82 4 0 4 186 -1 200 -1 3 -1 9 0 13 2 9 2 64 1 182 -1 44 0 85 0 90 6 43 -1
270 -9 312 -11 54 -47 122 -85 159 -52 50 -144 93 -194 89 -12 -1 -22 1 -22 5
0 4 -20 4 -45 0 -25 -4 -45 -4 -45 -1 0 3 -26 5 -57 3 -32 -1 -62 -3 -68 -3
-5 0 -28 0 -50 0 -22 1 -47 1 -55 0 -8 0 -73 0 -145 1 -71 0 -134 0 -140 -1
-5 -1 -14 -1 -19 0 -24 5 -258 2 -263 -3 -3 -3 -13 -1 -23 4 -10 5 -19 8 -21
5z"/>
<path d="M5118 2244 c-2 -1 -23 -5 -48 -9 -157 -22 -272 -168 -270 -341 1 -89
1 -89 -2 -157 -2 -31 0 -57 3 -57 3 0 3 -20 -1 -45 -4 -25 -4 -48 0 -50 4 -3
4 -22 0 -44 -4 -22 -4 -45 0 -51 4 -6 4 -28 0 -48 -3 -20 -4 -47 -1 -60 3 -13
4 -58 1 -100 -3 -42 -3 -98 0 -124 3 -27 3 -48 0 -48 -6 0 -7 -100 0 -100 3 0
6 -31 7 -68 2 -116 69 -218 178 -272 l50 -25 544 -3 c518 -3 547 -2 602 17 32
11 65 25 74 33 61 51 86 80 111 128 l29 55 0 565 0 565 -25 49 c-33 65 -94
126 -155 155 -39 19 -68 24 -132 25 -46 1 -83 3 -83 6 0 3 -26 4 -57 2 -32 -1
-62 -3 -68 -3 -5 0 -50 0 -100 1 -49 1 -94 1 -100 0 -5 -2 -14 -2 -19 -1 -7 2
-34 2 -126 0 -8 0 -84 1 -168 3 -83 2 -152 0 -152 -3 0 -3 -20 -3 -45 1 -25 4
-46 6 -47 4z"/>
</g>
</svg>
